<svg xmlns="http://www.w3.org/2000/svg" width="256" height="256" viewBox="0 0 256 256" fill="none">
  <defs>
    <linearGradient id="bg" x1="28" y1="22" x2="228" y2="234" gradientUnits="userSpaceOnUse">
      <stop stop-color="#F3A955"/>
      <stop offset="1" stop-color="#D76B2A"/>
    </linearGradient>
    <linearGradient id="page" x1="56" y1="62" x2="196" y2="196" gradientUnits="userSpaceOnUse">
      <stop stop-color="#FFF8EE"/>
      <stop offset="1" stop-color="#F8E8D5"/>
    </linearGradient>
  </defs>
  <rect x="20" y="20" width="216" height="216" rx="54" fill="url(#bg)"/>
  <path d="M64 66C64 58.268 70.268 52 78 52H158C173.464 52 186 64.536 186 80V176C186 183.732 179.732 190 172 190H90C75.641 190 64 178.359 64 164V66Z" fill="url(#page)"/>
  <path d="M84 76H152C160.837 76 168 83.163 168 92V172H96C89.373 172 84 166.627 84 160V76Z" fill="#FFF"/>
  <path d="M122 76H152C160.837 76 168 83.163 168 92V172H122V76Z" fill="#F2DFC8"/>
  <path d="M104 94H138C148.493 94 157 102.507 157 113C157 123.493 148.493 132 138 132H104V94Z" fill="#D76B2A"/>
  <path d="M104 132H140C149.941 132 158 140.059 158 150C158 159.941 149.941 168 140 168H104V132Z" fill="#B95522"/>
  <circle cx="83" cy="83" r="4" fill="#F9E9D8"/>
</svg>
